<?xml version="1.0" encoding="utf-8"?>
<!-- Generator: Adobe Illustrator 24.1.1, SVG Export Plug-In . SVG Version: 6.00 Build 0)  -->
<svg version="1.1" id="Layer_1" xmlns="http://www.w3.org/2000/svg" xmlns:xlink="http://www.w3.org/1999/xlink" x="0px" y="0px"
	 viewBox="0 0 200 54" style="enable-background:new 0 0 200 54;" xml:space="preserve">
<style type="text/css">
	.st0{fill:none;}
	.st1{fill:#007EFC;}
	.st2{font-family:'TrebuchetMS-Bold';}
	.st3{font-size:29.9996px;}
</style>
<desc>Created with Sketch.</desc>
<g>
	<rect id="canvas_background" x="-1" y="-1" class="st0" width="202" height="56"/>
</g>
<g>
	<path id="svg_8" d="M21.5,11.5c-0.6,0.9-3.4,2-3.8,2h-3.1c-0.5,0-1.3,0.1-1.6,0.4c0,0,0.1,0.1,0.1,0.1c0.3,0.3,0.9,0.8,1.5,0.8
		c0.3,0,0.5-0.1,0.7-0.3c0.8-0.9,1.2-1,1.5-1c0.3,0,0.5,0.2,0.7,0.5c0.3,0.5,0.1,1.2-0.1,1.8c-0.5,1.3-2.1,2.7-3.8,2.7c0,0,0,0,0,0
		c-0.2,0-0.5,0-0.7-0.1v2.8c0,0.6,0.7,2.1,2.8,2.1s2.7-3.1,2.7-3.7v-3.8c1.5-1,3.1-1.5,3.8-3.3C22.8,10.9,22.2,10.6,21.5,11.5z
		 M16.7,15.5c0.5-1.4,0-1.4-1-0.4s-2.5,0.1-3-0.5c-0.5-0.6-1-1-1.9-1c-0.9,0-3-0.1-4.3-0.5c-1.2-0.4-3.3-2.5-3.5-2
		c-0.2,0.6,0.1,1,0.8,2c0.6,1,3.4,2.4,3.4,2.4s0,2.9,0,4.1c0,1.2,2,3.1,3.1,3.1s1.8-0.9,1.8-1.5v-3.8C13.9,18.5,16.2,16.9,16.7,15.5
		z M15.7,12.3c1.2,0,2.1-1.2,2.1-2.7c0-1.5-1-2.7-2.1-2.7s-2.1,1.2-2.1,2.7C13.5,11.1,14.5,12.3,15.7,12.3z M10,12.3
		c1.2,0,2.1-1.2,2.1-2.7c0-1.5-1-2.7-2.1-2.7c-1.2,0-2.1,1.2-2.1,2.7C7.9,11.1,8.8,12.3,10,12.3z"/>
	<text id="svg_9" transform="matrix(1 0 0 1 10.3782 39.8673)" class="st1 st2 st3">Public Safety</text>
</g>
</svg>
